<?xml version="1.0" encoding="UTF-8"?>
<!DOCTYPE svg PUBLIC "-//W3C//DTD SVG 1.1//EN" "http://www.w3.org/Graphics/SVG/1.1/DTD/svg11.dtd">
<!-- Creator: CorelDRAW X7 -->
<svg xmlns="http://www.w3.org/2000/svg" xml:space="preserve" width="202mm" height="60mm" version="1.1" style="shape-rendering:geometricPrecision; text-rendering:geometricPrecision; image-rendering:optimizeQuality; fill-rule:evenodd; clip-rule:evenodd"
viewBox="0 0 20200 6000"
 xmlns:xlink="http://www.w3.org/1999/xlink">
 <defs>
  <style type="text/css">
   <![CDATA[
    .fil0 {fill:#FEFEFE;fill-rule:nonzero}
    .fil2 {fill:url(#id0)}
    .fil1 {fill:url(#id1)}
   ]]>
  </style>
  <linearGradient id="id0" gradientUnits="userSpaceOnUse" x1="98.68" y1="1831.7" x2="9783.27" y2="1831.7">
   <stop offset="0" style="stop-opacity:1; stop-color:#2655A1"/>
   <stop offset="0.490196" style="stop-opacity:1; stop-color:#3389BC"/>
   <stop offset="0.921569" style="stop-opacity:1; stop-color:#40BDD7"/>
   <stop offset="1" style="stop-opacity:1; stop-color:#40BDD7"/>
  </linearGradient>
  <linearGradient id="id1" gradientUnits="userSpaceOnUse" x1="-0.12" y1="2239.75" x2="9033.94" y2="2239.75">
   <stop offset="0" style="stop-opacity:1; stop-color:#2655A1"/>
   <stop offset="1" style="stop-opacity:1; stop-color:#40BDD7"/>
  </linearGradient>
 </defs>
 <g id="Слой_x0020_1">
  <metadata id="CorelCorpID_0Corel-Layer"/>
  <path class="fil0" d="M7765 4693l741 0c26,0 44,-22 44,-48l0 -693c-22,39 -66,61 -114,65l-671 0c-144,0 -257,113 -257,257l0 161c0,144 113,257 257,257l0 1zm1159 -1199l0 1430c0,76 -62,139 -139,139l-1020 0c-351,0 -636,-285 -636,-636l0 -135c0,-352 285,-637 636,-637l736 0c27,0 49,-21 49,-47l0 -109c0,-140 -92,-257 -262,-257l-867 0c-26,0 -48,-22 -48,-48l0 -259c0,-28 23,-51 51,-51l864 0c353,0 636,214 636,610l0 0z"/>
  <path class="fil0" d="M10532 2931l0 267c0,27 -21,48 -48,48l-352 0c-302,0 -401,318 -401,555l0 1202c0,33 -27,60 -60,60l-271 0c-27,0 -48,-22 -48,-48l0 -2071c0,-33 26,-60 59,-60l272 0c26,0 48,22 48,48l0 92c52,-74 161,-140 296,-140l459 0c26,0 46,21 46,47z"/>
  <path class="fil0" d="M11975 4749l0 264c0,28 -22,50 -50,50l-391 0c-348,0 -635,-283 -635,-636l0 -2548c0,-27 22,-49 49,-49l282 0c26,0 48,21 48,48l0 1089c22,-48 69,-78 126,-78l275 0c27,0 49,22 49,49l0 264c0,25 -19,44 -43,44l-407 0 0 1198c0,142 115,257 256,257l393 0c26,0 48,22 48,48l0 0z"/>
  <path class="fil0" d="M12788 1843l0 3174c0,25 -21,46 -47,46l-284 0c-27,0 -48,-22 -48,-48l0 -3174c0,-25 21,-46 46,-46l285 0c26,0 48,22 48,48z"/>
  <path class="fil0" d="M13657 3473l0 1002c0,143 114,261 257,261l576 0c143,0 261,-118 261,-261l0 -1002c0,-140 -118,-258 -261,-258l-576 0c-143,0 -257,118 -257,258zm257 1620c-353,0 -636,-283 -636,-636l0 -967c0,-348 283,-636 636,-636l576 0c352,0 640,288 640,636l0 967c0,353 -288,636 -640,636l-576 0z"/>
  <path class="fil0" d="M15848 4444c0,139 57,257 240,257l541 0c113,-17 265,-164 274,-277l0 -1135c0,-26 -22,-47 -48,-47l-749 0c-201,0 -258,117 -258,257l0 945zm1055 445c-44,78 -161,174 -301,174l-523 0c-405,0 -609,-288 -609,-636l0 -928c0,-349 221,-619 636,-619l1036 0c79,0 140,65 140,139l0 2313c0,352 -288,636 -636,636l-984 0c-29,0 -53,-24 -53,-54l0 -260c0,-26 21,-48 48,-48l989 0c139,0 257,-113 257,-257l0 -460 0 0z"/>
  <path class="fil0" d="M18189 2932l0 2082c0,27 -22,49 -49,49l-282 0c-27,0 -48,-22 -48,-48l0 -2082c0,-27 21,-49 48,-49l283 0c26,0 48,22 48,48zm0 -976l0 309c0,27 -22,49 -49,49l-282 0c-27,0 -48,-22 -48,-48l0 -309c0,-27 21,-48 48,-48l283 0c26,0 48,21 48,47z"/>
  <path class="fil0" d="M19124 3503l0 941c0,142 115,257 257,257l771 0c26,0 48,21 48,48l0 273c0,23 -18,41 -41,41l-778 0c-349,0 -636,-283 -636,-636l0 -902c0,-353 287,-636 636,-636l778 0c23,0 41,18 41,40l0 269c0,27 -21,48 -48,48l-771 0c-142,0 -257,115 -257,257l0 0z"/>
  <path class="fil1" d="M657 4411c-143,0 -271,-30 -378,-91 -224,-126 -403,-434 -170,-887l348 178c-43,84 -127,288 14,368 251,140 1299,-63 2470,-1959 1766,-2863 3911,-1895 5193,-1316 356,161 693,314 848,292l52 388c-267,36 -600,-115 -1061,-323 -1240,-560 -3114,-1405 -4699,1164 -928,1503 -1945,2186 -2617,2186l0 0z"/>
  <path class="fil2" d="M442 3643l-343 -190c259,-501 847,-481 1527,-450 933,42 2095,95 3245,-881 3008,-2554 4271,-2144 4586,-1958 245,145 366,391 315,642 -62,304 -378,562 -775,582l-15 -392c266,-35 385,-167 406,-268 17,-85 -31,-168 -130,-227 -120,-71 -484,-203 -1285,89 -805,294 -1763,910 -2849,1831 -1267,1075 -2566,1016 -3516,973 -649,-30 -1001,-49 -1166,249l0 0z"/>
 </g>
</svg>
