<svg aria-hidden="true" style="position: absolute; width: 0; height: 0; overflow: hidden;" version="1.1" xmlns="http://www.w3.org/2000/svg" xmlns:xlink="http://www.w3.org/1999/xlink">
<defs>
<symbol id="icon-delivery-truck-with-packages-behind" viewBox="0 0 32 32">
<title>delivery-truck-with-packages-behind</title>
<path fill="#fff" style="fill: var(--color1, #fff)" d="M9.48 20.197c-1.557 0-2.819 1.262-2.819 2.814 0 1.557 1.262 2.819 2.819 2.819 1.552 0 2.814-1.263 2.814-2.819 0-1.552-1.262-2.814-2.814-2.814zM9.48 24.423c-0.778 0-1.412-0.633-1.412-1.412 0-0.774 0.633-1.407 1.412-1.407 0.774 0 1.407 0.633 1.407 1.407 0 0.778-0.633 1.412-1.407 1.412zM7.053 20.198h-6.309c-0.25 0-0.452 0.203-0.452 0.452v1.373c0 0.25 0.203 0.452 0.452 0.452h5.057c0.132-0.906 0.589-1.706 1.252-2.278zM24.208 20.197c-1.552 0-2.814 1.262-2.814 2.814 0 1.557 1.262 2.819 2.814 2.819 1.557 0 2.814-1.263 2.814-2.819 0-1.552-1.258-2.814-2.814-2.814zM24.208 24.423c-0.778 0-1.407-0.633-1.407-1.412 0-0.774 0.629-1.407 1.407-1.407s1.407 0.633 1.407 1.407c0 0.778-0.629 1.412-1.407 1.412zM31.548 20.197h-1.1v-6.149c0-0.719-0.217-1.425-0.62-2.023l-2.756-4.081c-0.67-0.995-1.796-1.593-3-1.593h-4.271c-0.498 0-0.905 0.403-0.905 0.905v12.941h-6.991c0.661 0.575 1.118 1.371 1.249 2.281h7.38c0.258-1.796 1.805-3.186 3.674-3.186s3.416 1.389 3.679 3.186h3.661c0.253 0 0.452-0.204 0.452-0.453v-1.376c0-0.249-0.199-0.453-0.452-0.453zM27.041 12.839h-5.638c-0.249 0-0.453-0.199-0.453-0.453v-3.127c0-0.249 0.204-0.453 0.453-0.453h3.434c0.149 0 0.29 0.072 0.371 0.19l2.204 3.131c0.213 0.299-0.005 0.71-0.371 0.71zM16.742 19.292h-15.837c-0.5 0-0.905-0.405-0.905-0.905v-4.072c0-0.5 0.405-0.905 0.905-0.905h15.837c0.5 0 0.905 0.405 0.905 0.905v4.072c0 0.5-0.405 0.905-0.905 0.905zM7.24 12.052h-6.335c-0.5 0-0.905-0.405-0.905-0.905v-4.072c0-0.5 0.405-0.905 0.905-0.905h6.335c0.5 0 0.905 0.405 0.905 0.905v4.072c0 0.5-0.405 0.905-0.905 0.905zM16.742 12.052h-6.335c-0.5 0-0.905-0.405-0.905-0.905v-4.072c0-0.5 0.405-0.905 0.905-0.905h6.335c0.5 0 0.905 0.405 0.905 0.905v4.072c-0 0.5-0.405 0.905-0.905 0.905z"></path>
</symbol>
<symbol id="icon-logo" viewBox="0 0 84 32">
<title>logo</title>
<path fill="#fff" style="fill: var(--color1, #fff)" d="M33.629 22.066h2.645c0.094 0 0.156-0.077 0.156-0.171v-2.474c-0.079 0.14-0.233 0.217-0.404 0.233h-2.397c-0.515 0-0.919 0.404-0.919 0.918v0.576c0 0.515 0.404 0.919 0.919 0.919zM37.769 17.787v5.105c0 0.274-0.223 0.497-0.498 0.497h-3.642c-1.255 0-2.272-1.017-2.272-2.271v-0.483c0-1.255 1.017-2.272 2.272-2.272h2.629c0.095 0 0.172-0.076 0.172-0.171v-0.388c0-0.498-0.327-0.919-0.934-0.919h-3.098c-0.094 0-0.171-0.077-0.171-0.171v-0.925c0-0.1 0.080-0.18 0.18-0.18h3.089c1.26 0 2.272 0.763 2.272 2.178z"></path>
<path fill="#fff" style="fill: var(--color1, #fff)" d="M43.512 15.773v0.956c0 0.094-0.076 0.171-0.171 0.171h-1.258c-1.080 0-1.434 1.135-1.434 1.981v4.296c0 0.117-0.095 0.211-0.213 0.211h-0.97c-0.095 0-0.171-0.076-0.171-0.171v-7.397c0-0.117 0.094-0.213 0.211-0.213h0.971c0.094 0 0.171 0.077 0.171 0.171v0.327c0.186-0.265 0.575-0.498 1.059-0.498h1.639c0.092 0 0.165 0.074 0.165 0.165z"></path>
<path fill="#fff" style="fill: var(--color1, #fff)" d="M48.665 22.269v0.944c0 0.097-0.079 0.175-0.177 0.175h-1.396c-1.245 0-2.271-1.011-2.271-2.271v-9.099c0-0.098 0.079-0.175 0.175-0.175h1.007c0.094 0 0.171 0.076 0.171 0.171v3.89c0.079-0.171 0.248-0.281 0.452-0.281h0.983c0.097 0 0.175 0.079 0.175 0.177v0.944c0 0.086-0.070 0.156-0.156 0.156h-1.454v4.278c0 0.507 0.412 0.919 0.917 0.919h1.402c0.094 0 0.171 0.077 0.171 0.171z"></path>
<path fill="#fff" style="fill: var(--color1, #fff)" d="M51.568 11.889v11.336c0 0.091-0.073 0.164-0.165 0.164h-1.017c-0.094 0-0.171-0.076-0.171-0.171v-11.334c0-0.091 0.074-0.165 0.165-0.165h1.017c0.094 0 0.171 0.077 0.171 0.171z"></path>
<path fill="#fff" style="fill: var(--color1, #fff)" d="M54.674 17.709v3.579c0 0.513 0.404 0.934 0.917 0.934h2.055c0.513 0 0.932-0.421 0.932-0.934v-3.579c0-0.498-0.419-0.919-0.932-0.919h-2.055c-0.513 0-0.917 0.421-0.917 0.919zM55.592 23.498c-1.261 0-2.272-1.013-2.272-2.272v-3.454c0-1.245 1.011-2.272 2.272-2.272h2.055c1.26 0 2.287 1.028 2.287 2.272v3.454c0 1.26-1.028 2.272-2.287 2.272h-2.055z"></path>
<path fill="#fff" style="fill: var(--color1, #fff)" d="M62.5 21.179c0 0.498 0.202 0.919 0.857 0.919h1.93c0.404-0.062 0.949-0.586 0.98-0.99v-4.052c0-0.094-0.079-0.171-0.171-0.171h-2.677c-0.717 0-0.919 0.421-0.919 0.919v3.376zM66.267 22.767c-0.156 0.28-0.576 0.622-1.075 0.622h-1.866c-1.448 0-2.178-1.026-2.178-2.271v-3.315c0-1.246 0.793-2.21 2.272-2.21h3.703c0.281 0 0.498 0.232 0.498 0.497v8.259c0 1.26-1.028 2.272-2.272 2.272h-3.514c-0.104 0-0.19-0.085-0.19-0.19v-0.931c0-0.094 0.077-0.171 0.172-0.171h3.532c0.498 0 0.919-0.404 0.919-0.918v-1.645z"></path>
<path fill="#fff" style="fill: var(--color1, #fff)" d="M70.86 15.779v7.437c0 0.095-0.077 0.172-0.174 0.172h-1.008c-0.095 0-0.172-0.077-0.172-0.171v-7.437c0-0.095 0.077-0.172 0.174-0.172h1.010c0.094 0 0.171 0.077 0.171 0.171zM70.86 12.294v1.103c0 0.095-0.077 0.172-0.174 0.172h-1.008c-0.095 0-0.172-0.077-0.172-0.171v-1.103c0-0.095 0.077-0.172 0.174-0.172h1.010c0.094 0 0.171 0.077 0.171 0.171z"></path>
<path fill="#fff" style="fill: var(--color1, #fff)" d="M74.199 17.818v3.361c0 0.507 0.412 0.919 0.918 0.919h2.755c0.094 0 0.171 0.076 0.171 0.171v0.976c0 0.080-0.065 0.144-0.146 0.144h-2.781c-1.243 0-2.271-1.011-2.271-2.271v-3.222c0-1.26 1.028-2.272 2.271-2.272h2.781c0.080 0 0.146 0.065 0.146 0.146v0.961c0 0.094-0.076 0.171-0.171 0.171h-2.755c-0.506 0-0.918 0.41-0.918 0.918z"></path>
<path fill="#000" style="fill: var(--color2, #000)" d="M8.238 21.063c-0.51 0-0.965-0.11-1.349-0.327-0.799-0.449-1.438-1.549-0.608-3.169l1.245 0.638c-0.153 0.3-0.455 1.028 0.051 1.313 0.894 0.501 4.64-0.223 8.82-6.998 6.308-10.225 13.971-6.766 18.549-4.699 1.273 0.574 2.474 1.12 3.029 1.042l0.186 1.387c-0.952 0.128-2.141-0.41-3.79-1.154-4.428-2-11.122-5.020-16.783 4.158-3.313 5.368-6.949 7.808-9.349 7.808z"></path>
<path fill="#000" style="fill: var(--color2, #000)" d="M7.472 18.316l-1.227-0.678c0.928-1.789 3.026-1.718 5.456-1.607 3.332 0.152 7.483 0.339 11.588-3.145 10.747-9.121 15.256-7.66 16.38-6.995 0.877 0.518 1.309 1.396 1.126 2.294-0.22 1.087-1.347 2.008-2.767 2.079l-0.054-1.401c0.952-0.126 1.376-0.595 1.45-0.956 0.061-0.305-0.109-0.601-0.465-0.812-0.427-0.253-1.726-0.724-4.588 0.318-2.876 1.050-6.299 3.249-10.176 6.539-4.525 3.841-9.168 3.63-12.558 3.477-2.318-0.106-3.576-0.174-4.165 0.888z"></path>
</symbol>
<symbol id="icon-ocean-transportation" viewBox="0 0 32 32">
<title>ocean-transportation</title>
<path fill="#fff" style="fill: var(--color1, #fff)" d="M10.578 18.465c-2.423 1.209-4.734 2.357-7.661 3.209v-5.675c0-0.442 0.219-0.855 0.584-1.103l2.186-1.486c0.187-0.127 0.524-0.231 0.75-0.231h3.51v-2.067h3.949v2.067h3.026c0.491 0 0.889 0.398 0.889 0.889v1.229c-2.782 0.95-5.024 2.067-7.232 3.168zM9.946 9.071v1.073h3.949v-1.073c0-0.55-0.446-0.995-0.995-0.995h-1.959c-0.549 0-0.995 0.445-0.995 0.995zM7.652 5.943c0.284 0 0.554-0.058 0.8-0.163 0.279 0.386 0.73 0.64 1.244 0.64 0.167 0 0.326-0.033 0.476-0.083-0.002 0.028-0.008 0.055-0.008 0.083 0 0.526 0.426 0.952 0.952 0.952s0.952-0.426 0.952-0.952c0-0.526-0.426-0.952-0.952-0.952-0 0-0 0-0.001 0 0.074-0.18 0.116-0.377 0.116-0.584 0-0.849-0.688-1.536-1.536-1.536-0.028 0-0.055 0.007-0.082 0.008-0.239-0.863-1.022-1.5-1.961-1.5-1.129 0-2.044 0.915-2.044 2.044s0.915 2.044 2.044 2.044zM27.658 25.948c-0.198 0.301-0.203 0.688-0.003 0.987l1.178 1.765c0.43 0.644-0.071 1.5-0.843 1.44l-26.19-2.058c-0.712-0.056-1.308-0.557-1.49-1.248-0.159-0.605-0.31-1.355-0.31-2.020 0-1.367 0.55-1.622 1.674-1.891 10.053-2.399 12.818-8.181 29.592-9.128 0.436-0.025 0.786 0.356 0.728 0.789-0.497 3.682-2.253 8.19-4.336 11.362zM26.378 21.627c0-0.246-0.199-0.445-0.445-0.445s-0.445 0.199-0.445 0.445c0 0.687-0.458 1.262-1.083 1.454v-3.065c0.334-0.166 0.566-0.507 0.566-0.905 0-0.56-0.454-1.014-1.014-1.014s-1.014 0.454-1.014 1.014c0 0.401 0.234 0.744 0.572 0.908v3.062c-0.625-0.192-1.083-0.767-1.083-1.454 0-0.246-0.199-0.445-0.445-0.445s-0.445 0.199-0.445 0.445c0 1.333 1.084 2.417 2.417 2.417s2.417-1.084 2.417-2.417z"></path>
</symbol>
<symbol id="icon-package-for-delivery" viewBox="0 0 32 32">
<title>package-for-delivery</title>
<path fill="#fff" style="fill: var(--color1, #fff)" d="M15.114 10.023l-1.894 4.6c-0.064 0.156-0.21 0.263-0.378 0.278l-9.688 0.851c-0.238 0.021-0.418 0.223-0.412 0.461l0.197 7.605c0.005 0.209 0.154 0.387 0.358 0.43l11.405 2.399c0.279 0.059 0.562 0.088 0.846 0.087l0-2.255v-14.37c-0-0.628-0.196-0.666-0.435-0.086zM13.788 24.205l-4.282-0.69v-2.244h4.282v2.934zM11.915 13.808l-11.418 1.154c-0.349 0.035-0.603-0.323-0.454-0.641l3.040-6.499c0.062-0.132 0.184-0.226 0.327-0.253l12.546-2.304-3.674 8.277c-0.066 0.148-0.206 0.25-0.367 0.266zM28.846 15.752l-9.688-0.851c-0.168-0.015-0.314-0.122-0.378-0.278l-1.894-4.6c-0.239-0.581-0.435-0.542-0.435 0.086v14.37l0 2.255c0.283 0.001 0.567-0.028 0.846-0.087l11.405-2.399c0.205-0.043 0.353-0.221 0.358-0.43l0.197-7.605c0.006-0.238-0.174-0.441-0.412-0.462zM24.859 19.814l-0.535 0.015-0.011 3.368c-0 0.148-0.151 0.29-0.339 0.317l-0.877 0.126c-0.2 0.029-0.364-0.074-0.364-0.23l0.008-3.537-0.612 0.017c-0.298 0.008-0.486-0.23-0.334-0.428l1.456-1.897c0.138-0.18 0.476-0.163 0.609 0.026l1.278 1.821c0.121 0.173-0.032 0.395-0.279 0.402zM31.502 14.961l-11.418-1.154c-0.161-0.016-0.302-0.118-0.367-0.266l-3.674-8.277 12.546 2.304c0.144 0.026 0.266 0.121 0.327 0.253l3.040 6.499c0.149 0.318-0.106 0.676-0.454 0.641z"></path>
</symbol>
<symbol id="icon-transport" viewBox="0 0 32 32">
<title>transport</title>
<path fill="#fff" style="fill: var(--color1, #fff)" d="M19.284 8.687c0-6.967-1.953-8.687-3.284-8.687s-3.284 1.72-3.284 8.687l-10.854 7.601c-0.125 0.088-0.227 0.284-0.227 0.437v2.922c0 0.366 0.292 0.6 0.649 0.521l10.375-2.304c0.393 3.085 1.059 5.845 1.484 8.679l-3.978 3.068c-0.111 0.088-0.202 0.276-0.202 0.418v1.419c0 0.452 0.338 0.671 0.751 0.487l5.287-2.357 5.287 2.357c0.413 0.184 0.751-0.035 0.751-0.487v-1.419c0-0.142-0.091-0.33-0.202-0.418l-3.978-3.068c0.425-2.835 1.091-5.595 1.484-8.679l10.375 2.304c0.357 0.079 0.649-0.155 0.649-0.521v-2.922c0-0.153-0.102-0.349-0.227-0.437l-10.853-7.601zM16 3.216c-0.67 0-1.301 0.148-1.865 0.403 0.201-0.783 0.957-1.367 1.865-1.367s1.664 0.584 1.865 1.367c-0.563-0.256-1.195-0.403-1.865-0.403z"></path>
</symbol>
</defs>
</svg>
